<svg width="29" height="39" viewBox="0 0 29 39" fill="none" xmlns="http://www.w3.org/2000/svg">
<path fill-rule="evenodd" clip-rule="evenodd" d="M2.55345 16.9133L9.03075 10.6508L5.14135 14.4847L1.02225 18.5451L0.342239 19.2154L0.479525 19.0307C0.734841 18.7805 0.982585 18.5379 1.22297 18.3026C1.278 18.2356 1.33372 18.1674 1.3896 18.0991C1.91216 17.4601 2.44829 16.8044 2.55345 16.9133Z" fill="black"/>
<path d="M8.80531 28.0043L18.7545 38.3349C18.8525 38.4367 18.9694 38.5179 19.0984 38.574C19.2274 38.6301 19.3661 38.6599 19.5066 38.6617C19.647 38.6635 19.7865 38.6373 19.9169 38.5846C20.0474 38.5319 20.1663 38.4537 20.2669 38.3546L27.4231 31.3011C27.6264 31.1007 27.7426 30.8269 27.7464 30.5398C27.7501 30.2528 27.641 29.976 27.443 29.7704L17.4938 19.4381L27.7081 9.36945C28.1149 8.96885 28.1243 8.25025 27.7279 7.83868L20.7584 0.600115C20.5603 0.394808 20.2897 0.277436 20.0061 0.273752C19.7225 0.270067 19.4489 0.38037 19.2455 0.580461L9.03075 10.6508C9.03295 10.6563 9.03496 10.6614 9.03616 10.6667C9.05679 10.7579 8.83487 10.9054 5.14135 14.4847L1.02225 18.5451C0.705773 18.9233 0.439308 19.2166 0.342239 19.2154L8.80531 28.0043Z" fill="black"/>
</svg>
