<svg width="42" height="42" viewBox="0 0 42 42" fill="none" xmlns="http://www.w3.org/2000/svg">
<path d="M1.51905 26.2642L15.103 26.6548L14.713 40.2359C14.7091 40.3696 14.7316 40.5029 14.7793 40.6279C14.8269 40.753 14.8987 40.8675 14.9906 40.9648C15.0825 41.0621 15.1926 41.1404 15.3147 41.1951C15.4369 41.2499 15.5686 41.2801 15.7024 41.2839L25.2169 41.5591C25.4871 41.5668 25.7494 41.4669 25.946 41.2813C26.1426 41.0957 26.2575 40.8396 26.2653 40.5694L26.6564 26.9872L40.2375 27.3792C40.7781 27.3951 41.2703 26.9305 41.2858 26.3895L41.5603 16.8746C41.5678 16.6044 41.4678 16.3423 41.2823 16.1457C41.0967 15.9492 40.8408 15.8342 40.5706 15.8262L26.9881 15.4349L27.3793 1.85058C27.3867 1.58043 27.2866 1.31838 27.1011 1.12186C26.9156 0.925334 26.6597 0.810369 26.3896 0.802154L16.8751 0.527699C16.7412 0.523722 16.6079 0.54618 16.4827 0.593787C16.3575 0.641394 16.243 0.713215 16.1456 0.805141C16.0482 0.897068 15.9699 1.0073 15.9152 1.12952C15.8605 1.25174 15.8304 1.38355 15.8267 1.51741L15.4358 15.1014L1.85185 14.7108C1.57045 14.703 1.31297 14.8087 1.1226 14.9884C0.932216 15.1681 0.811542 15.4195 0.803084 15.7008L0.528932 25.2161C0.52128 25.4864 0.621292 25.7486 0.806971 25.9452C0.992648 26.1417 1.24879 26.2565 1.51905 26.2642Z" fill="black"/>
</svg>
