<svg width="31" height="21" viewBox="0 0 31 21" fill="none" xmlns="http://www.w3.org/2000/svg">
<path d="M28.1476 9.17859C28.7963 9.93236 28.7963 10.95 28.1476 11.7025C26.1045 14.0721 21.2027 18.9509 15.4799 18.9509C9.757 18.9509 4.8552 14.0721 2.8121 11.7025C2.49651 11.3416 2.3252 10.8976 2.3252 10.4406C2.3252 9.98352 2.49651 9.53951 2.8121 9.17859C4.8552 6.80905 9.757 1.93018 15.4799 1.93018C21.2027 1.93018 26.1045 6.80905 28.1476 9.17859V9.17859Z" stroke="#888888" stroke-width="3.11628" stroke-linecap="round" stroke-linejoin="round"/>
<path d="M15.4804 14.0881C17.7477 14.0881 19.5857 12.4551 19.5857 10.4408C19.5857 8.42641 17.7477 6.79346 15.4804 6.79346C13.213 6.79346 11.375 8.42641 11.375 10.4408C11.375 12.4551 13.213 14.0881 15.4804 14.0881Z" stroke="#888888" stroke-width="3.11628" stroke-linecap="round" stroke-linejoin="round"/>
</svg>
